# xmcd
#
# Track frame offsets: 
#        150
#        17327
#        30127
#        47402
#        69465
#        84530
#        100945
#        119855
#        136720
#        151407
#        167095
#
# Disc length: 2428 seconds
#
# Revision: 2
# Processed by: cddbd v1.5.2PL0 Copyright (c) Steve Scherf et al.
# Submitted via: ExactAudioCopy v0.95b3
#
DISCID=7d097a0b
DTITLE=PinMonkey - Pinmonkey
DYEAR=2002
DGENRE=Country
TTITLE0=Slow Train Comin'
TTITLE1=Jar Of Clay
TTITLE2=Every Time It Rains
TTITLE3=Augusta
TTITLE4=Fly
TTITLE5=Falling Down
TTITLE6=The Longest Road
TTITLE7=Falling Out Of Love With Me (Featuring Dolly Parton)
TTITLE8=Barbed Wire And Roses
TTITLE9=I Drove All Night
TTITLE10=Stay With Us
EXTD=
EXTT0=
EXTT1=
EXTT2=
EXTT3=
EXTT4=
EXTT5=
EXTT6=
EXTT7=
EXTT8=
EXTT9=
EXTT10=
PLAYORDER=
